<svg width="115" height="24" viewBox="0 0 115 24" fill="none" xmlns="http://www.w3.org/2000/svg">
<rect width="24" height="24" rx="4.26667" fill="#FF3C21"/>
<path d="M17.8772 4.57621C17.7307 4.33326 17.5241 4.13217 17.2772 3.99233C17.0304 3.85248 16.7517 3.77861 16.4679 3.77783H7.53204C6.95813 3.77783 6.41793 4.0837 6.12275 4.57621L3.89535 8.28772C3.81827 8.4155 3.77761 8.56193 3.77777 8.71116C3.78106 9.50479 4.07336 10.27 4.59999 10.8637V17.7556C4.59999 18.6625 5.33753 19.4001 6.24444 19.4001H17.7555C18.6625 19.4001 19.4 18.6625 19.4 17.7556V10.8637C19.9266 10.27 20.2189 9.50479 20.2222 8.71116C20.2224 8.56193 20.1817 8.4155 20.1046 8.28772L17.8772 4.57621ZM18.2713 8.42863C18.4613 8.74532 18.5652 9.13077 18.3968 9.45946C18.3035 9.64173 18.1762 9.80648 18.0201 9.94411C17.7199 10.2088 17.3335 10.355 16.9333 10.3556C16.0264 10.3556 15.2889 9.61808 15.2889 8.71116C15.2889 8.65525 15.2848 8.60263 15.2733 8.55001L14.6475 5.42228H16.4679L18.2713 8.42863ZM11.0289 5.42228H12.9702L13.6387 8.76461C13.6099 9.64603 12.888 10.3556 12 10.3556C11.112 10.3556 10.3901 9.64603 10.3613 8.76461L11.0289 5.42228ZM7.53204 5.42228H9.35244L8.72755 8.55001C8.71522 8.60263 8.7111 8.65525 8.7111 8.71116C8.7111 9.61808 7.97357 10.3556 7.06666 10.3556C6.66644 10.355 6.28013 10.2088 5.97991 9.94411C5.82379 9.80648 5.69651 9.64173 5.60315 9.45946C5.4348 9.13077 5.53868 8.74533 5.72865 8.42863L7.53204 5.42228ZM15.2889 17.7556C13.2333 17.7556 14.5513 17.7556 13.6444 17.7556H10.3555C9.44864 17.7556 10.3555 17.7556 8.7111 17.7556H7.06666C6.61256 17.7556 6.24444 17.3875 6.24444 16.9334V11.8833C6.50837 11.9515 6.78053 12.0001 7.06666 12.0001C7.53353 12.0003 7.99508 11.9009 8.42045 11.7085C8.84583 11.5161 9.22524 11.2351 9.53333 10.8843C10.136 11.5684 11.0191 12.0001 12 12.0001C12.9809 12.0001 13.864 11.5684 14.4667 10.8843C14.7747 11.2351 15.1542 11.5161 15.5795 11.7085C16.0049 11.9009 16.4665 12.0003 16.9333 12.0001C17.2195 12.0001 17.4916 11.9515 17.7555 11.8833V16.9334C17.7555 17.3875 17.3874 17.7556 16.9333 17.7556H15.2889Z" fill="white"/>
<path d="M38.7612 4.54802C39.9378 4.54802 40.992 4.73774 41.9235 5.11717C42.855 5.48437 43.5843 6.01068 44.1114 6.69611C44.6384 7.36931 44.902 8.15266 44.902 9.04617C44.902 9.84176 44.6875 10.5578 44.2585 11.1943C43.8417 11.8307 43.2534 12.3448 42.4934 12.7365C41.7458 13.1282 40.8816 13.3852 39.9011 13.5076V16.3534H46.2441V18.2077H31.3334V16.3534H37.6213V13.4892C36.6407 13.3791 35.7704 13.1282 35.0105 12.7365C34.2628 12.3448 33.6745 11.8307 33.2455 11.1943C32.8287 10.5578 32.6204 9.84176 32.6204 9.04617C32.6204 8.15266 32.8839 7.36931 33.4109 6.69611C33.9503 6.01068 34.6857 5.48437 35.6172 5.11717C36.5488 4.73774 37.5967 4.54802 38.7612 4.54802ZM34.8818 9.04617C34.8818 9.89072 35.2373 10.5578 35.9482 11.0474C36.6591 11.5247 37.5967 11.7634 38.7612 11.7634C39.9256 11.7634 40.8633 11.5247 41.5742 11.0474C42.2973 10.5578 42.6589 9.89072 42.6589 9.04617C42.6589 8.21386 42.2973 7.55902 41.5742 7.08167C40.8633 6.59207 39.9256 6.34728 38.7612 6.34728C37.5967 6.34728 36.6591 6.59207 35.9482 7.08167C35.2373 7.55902 34.8818 8.21386 34.8818 9.04617Z" fill="#1E1E1E"/>
<path d="M51.5028 3.66675V7.04495H60.6037V8.84421H49.2414V3.66675H51.5028ZM47.4028 9.96416H62.3136V11.7634H47.4028V9.96416ZM49.0759 12.8099H60.5302V17.1245H51.3925V18.2444H61.0082V19.9702H49.1127V15.5088H58.2504V14.5174H49.0759V12.8099Z" fill="#1E1E1E"/>
<path d="M68.749 4.7867C69.5947 4.7867 70.3608 4.96417 71.0472 5.31913C71.7336 5.66184 72.2729 6.1392 72.6651 6.75119C73.0573 7.36319 73.2534 8.05474 73.2534 8.82585C73.2534 9.59696 73.0573 10.2946 72.6651 10.9189C72.2729 11.5309 71.7336 12.0082 71.0472 12.3509C70.3608 12.6936 69.5947 12.865 68.749 12.865C67.891 12.865 67.1126 12.6936 66.414 12.3509C65.7276 12.0082 65.1883 11.5309 64.7961 10.9189C64.4038 10.2946 64.2077 9.59696 64.2077 8.82585C64.2077 8.05474 64.4038 7.36319 64.7961 6.75119C65.1883 6.1392 65.7276 5.66184 66.414 5.31913C67.1126 4.96417 67.891 4.7867 68.749 4.7867ZM63.5091 14.958C65.556 14.958 67.4252 14.9274 69.1167 14.8662C70.8082 14.805 72.42 14.6581 73.9521 14.4256L74.1176 16.078C72.5364 16.384 70.9062 16.5859 69.227 16.6838C67.56 16.7695 65.746 16.8124 63.7849 16.8124L63.5091 14.958ZM66.4324 8.82585C66.4324 9.46232 66.6469 9.97028 67.0759 10.3497C67.5171 10.7291 68.0748 10.9189 68.749 10.9189C69.4109 10.9189 69.9563 10.7291 70.3853 10.3497C70.8143 9.97028 71.0288 9.46232 71.0288 8.82585C71.0288 8.17714 70.8143 7.66918 70.3853 7.30199C69.9563 6.92255 69.4109 6.73283 68.749 6.73283C68.0748 6.73283 67.5171 6.92255 67.0759 7.30199C66.6469 7.66918 66.4324 8.17714 66.4324 8.82585ZM74.8714 3.66675H77.1512V20.0304H74.8714V3.66675Z" fill="#1E1E1E"/>
<path d="M91.5766 4.6949V6.51252H90.2345V10.3864C90.7125 10.3497 91.356 10.2824 92.1649 10.1845L92.312 11.8552C90.878 12.1123 89.3458 12.2836 87.7156 12.3693C86.0977 12.4427 84.3878 12.4794 82.586 12.4794L82.347 10.6251H84.0937V6.51252H82.7699V4.6949H91.5766ZM84.6452 13.4525H86.9067V14.9213H93.121V13.4525H95.364V20.0304H84.6452V13.4525ZM86.2999 10.5884C87.0844 10.5639 87.6666 10.5394 88.0466 10.5149V6.51252H86.2999V10.5884ZM93.121 18.1343V16.6838H86.9067V18.1343H93.121ZM93.0842 3.70347H95.364V7.24691H97.5887V9.11961H95.364V12.8283H93.0842V3.70347Z" fill="#1E1E1E"/>
<path d="M103.013 4.44292C104.067 4.44292 104.98 4.71832 105.752 5.26911C106.525 5.80766 107.021 6.51758 107.242 7.39885H109.963V3.76361H112.242V12.5947H109.963V9.23483H107.26C107.052 10.1406 106.555 10.875 105.771 11.438C104.999 11.9888 104.079 12.2642 103.013 12.2642C102.192 12.2642 101.45 12.099 100.788 11.7685C100.139 11.4258 99.6238 10.9606 99.2438 10.3731C98.8761 9.77338 98.6923 9.10019 98.6923 8.35355C98.6923 7.60692 98.8761 6.93985 99.2438 6.35234C99.6238 5.75258 100.139 5.28747 100.788 4.95699C101.45 4.61428 102.192 4.44292 103.013 4.44292ZM100.862 8.35355C100.862 8.96555 101.058 9.45514 101.45 9.82234C101.855 10.1895 102.376 10.3731 103.013 10.3731C103.65 10.3731 104.171 10.1895 104.576 9.82234C104.98 9.45514 105.182 8.96555 105.182 8.35355C105.182 7.72932 104.98 7.23973 104.576 6.88477C104.183 6.51758 103.663 6.33398 103.013 6.33398C102.376 6.33398 101.855 6.51758 101.45 6.88477C101.058 7.23973 100.862 7.72932 100.862 8.35355ZM101.34 13.3291H103.62V14.9264H109.981V13.3291H112.242V20.0304H101.34V13.3291ZM109.981 18.2128V16.6705H103.62V18.2128H109.981Z" fill="#1E1E1E"/>
</svg>
