<svg width="14" height="14" viewBox="0 0 14 14" fill="none" xmlns="http://www.w3.org/2000/svg">
<path d="M2.33332 3.49996C2.33332 3.34525 2.39478 3.19688 2.50418 3.08748C2.61358 2.97808 2.76195 2.91663 2.91666 2.91663H11.0833C11.238 2.91663 11.3864 2.97808 11.4958 3.08748C11.6052 3.19688 11.6667 3.34525 11.6667 3.49996V5.83329H2.33332V3.49996Z" stroke="#555555" stroke-width="1.05" stroke-linejoin="round"/>
<path d="M4.66666 3.79163V2.04163M9.33332 3.79163V2.04163" stroke="#555555" stroke-width="1.05" stroke-linecap="round"/>
<path d="M2.33332 5.83325H11.6667V11.0833C11.6667 11.238 11.6052 11.3863 11.4958 11.4957C11.3864 11.6051 11.238 11.6666 11.0833 11.6666H2.91666C2.76195 11.6666 2.61358 11.6051 2.50418 11.4957C2.39478 11.3863 2.33332 11.238 2.33332 11.0833V5.83325Z" stroke="#555555" stroke-width="1.05" stroke-linejoin="round"/>
</svg>
