<svg width="24" height="24" viewBox="0 0 24 24" fill="none" xmlns="http://www.w3.org/2000/svg">
<path d="M9.84008 17.08C9.70875 17.0801 9.57868 17.0543 9.45735 17.004C9.33602 16.9537 9.22582 16.88 9.13308 16.787L5.29308 12.947C5.19757 12.8547 5.12139 12.7444 5.06898 12.6224C5.01657 12.5004 4.98898 12.3691 4.98783 12.2364C4.98668 12.1036 5.01198 11.9719 5.06226 11.849C5.11254 11.7261 5.18679 11.6145 5.28069 11.5206C5.37458 11.4267 5.48623 11.3524 5.60913 11.3021C5.73202 11.2519 5.8637 11.2266 5.99648 11.2277C6.12926 11.2289 6.26048 11.2565 6.38249 11.3089C6.50449 11.3613 6.61483 11.4375 6.70708 11.533L9.84008 14.666L17.2931 7.21296C17.4817 7.0308 17.7343 6.93001 17.9965 6.93229C18.2587 6.93457 18.5095 7.03974 18.6949 7.22514C18.8803 7.41055 18.9855 7.66136 18.9878 7.92356C18.99 8.18576 18.8892 8.43836 18.7071 8.62696L10.5471 16.787C10.4543 16.88 10.3441 16.9537 10.2228 17.004C10.1015 17.0543 9.97142 17.0801 9.84008 17.08Z" fill="#FF3C21"/>
</svg>
