<svg width="24" height="24" viewBox="0 0 24 24" fill="none" xmlns="http://www.w3.org/2000/svg">
<path d="M12 1.92859C14.2164 1.92859 16.3421 2.80907 17.9094 4.37634C19.4766 5.94361 20.3571 8.06928 20.3571 10.2857C20.3571 13.8172 17.8757 17.6657 12.9771 21.8726C12.7047 22.1066 12.3574 22.2351 11.9984 22.2348C11.6393 22.2345 11.2922 22.1053 11.0203 21.8709L10.6963 21.5897C6.01454 17.4926 3.64282 13.7383 3.64282 10.2857C3.64282 8.06928 4.5233 5.94361 6.09057 4.37634C7.65784 2.80907 9.78351 1.92859 12 1.92859ZM12 3.2143C10.1245 3.2143 8.32586 3.95933 6.99971 5.28548C5.67356 6.61163 4.92854 8.41027 4.92854 10.2857C4.92854 13.2874 7.11254 16.746 11.5405 20.6203L11.8603 20.8972C11.8991 20.9306 11.9487 20.949 12 20.949C12.0512 20.949 12.1008 20.9306 12.1397 20.8972C16.782 16.9097 19.0714 13.3586 19.0714 10.2857C19.0714 9.3571 18.8885 8.43756 18.5331 7.57961C18.1777 6.72167 17.6569 5.94212 17.0002 5.28548C16.3436 4.62883 15.564 4.10796 14.7061 3.75258C13.8481 3.39721 12.9286 3.2143 12 3.2143ZM12 7.07145C12.8524 7.07145 13.67 7.41009 14.2728 8.01289C14.8756 8.61568 15.2143 9.43325 15.2143 10.2857C15.2143 11.1382 14.8756 11.9558 14.2728 12.5586C13.67 13.1614 12.8524 13.5 12 13.5C11.1475 13.5 10.3299 13.1614 9.72712 12.5586C9.12433 11.9558 8.78568 11.1382 8.78568 10.2857C8.78568 9.43325 9.12433 8.61568 9.72712 8.01289C10.3299 7.41009 11.1475 7.07145 12 7.07145ZM12 8.35716C11.4885 8.35716 10.9979 8.56035 10.6363 8.92203C10.2746 9.2837 10.0714 9.77424 10.0714 10.2857C10.0714 10.7972 10.2746 11.2878 10.6363 11.6494C10.9979 12.0111 11.4885 12.2143 12 12.2143C12.5115 12.2143 13.002 12.0111 13.3637 11.6494C13.7253 11.2878 13.9285 10.7972 13.9285 10.2857C13.9285 9.77424 13.7253 9.2837 13.3637 8.92203C13.002 8.56035 12.5115 8.35716 12 8.35716Z" fill="#1E1E1E" stroke="#1E1E1E" stroke-width="0.5"/>
</svg>
