<svg width="25" height="25" viewBox="0 0 25 25" fill="none" xmlns="http://www.w3.org/2000/svg">
<path d="M17.0715 4.50003C19.8303 6.07375 21.6429 9.09661 21.6429 12.5C21.6429 14.3083 21.1067 16.076 20.102 17.5795C19.0974 19.0831 17.6695 20.2549 15.9989 20.9469C14.3282 21.6389 12.4899 21.82 10.7164 21.4672C8.94282 21.1144 7.31371 20.2437 6.03506 18.965C4.75641 17.6864 3.88564 16.0573 3.53286 14.2837C3.18008 12.5102 3.36114 10.6719 4.05314 9.00121C4.74514 7.33058 5.917 5.90266 7.42054 4.89803C8.92407 3.8934 10.6918 3.35718 12.5 3.35718" stroke="#1E1E1E" stroke-width="1.8" stroke-linecap="round" stroke-linejoin="round"/>
<path d="M17.0714 9.07143V4.5H21.6428" stroke="#1E1E1E" stroke-width="1.8" stroke-linecap="round" stroke-linejoin="round"/>
</svg>
