<svg width="24" height="24" viewBox="0 0 24 24" fill="none" xmlns="http://www.w3.org/2000/svg">
<path d="M21.25 5C21.6642 5 22 5.33579 22 5.75C22 6.16421 21.6642 6.5 21.25 6.5H2.75C2.33579 6.5 2 6.16421 2 5.75C2 5.33579 2.33579 5 2.75 5H21.25ZM14.25 18C14.6642 18 15 18.3358 15 18.75C15 19.1642 14.6642 19.5 14.25 19.5H2.75C2.33579 19.5 2 19.1642 2 18.75C2 18.3358 2.33579 18 2.75 18H14.25ZM15 12.25C15 11.8358 14.6642 11.5 14.25 11.5H2.75C2.33579 11.5 2 11.8358 2 12.25C2 12.6642 2.33579 13 2.75 13H14.25C14.6642 13 15 12.6642 15 12.25Z" fill="#1E1E1E"/>
<path d="M19.75 10.4C19.3358 10.4 19 10.7358 19 11.15V16.8393L18.2803 16.1197C17.9874 15.8268 17.5126 15.8268 17.2197 16.1197C16.9268 16.4126 16.9268 16.8874 17.2197 17.1803L19.2197 19.1803C19.5126 19.4732 19.9874 19.4732 20.2803 19.1803L22.2803 17.1803C22.5732 16.8874 22.5732 16.4126 22.2803 16.1197C21.9874 15.8268 21.5126 15.8268 21.2197 16.1197L20.5 16.8393V11.15C20.5 10.7358 20.1642 10.4 19.75 10.4Z" fill="#1E1E1E"/>
</svg>
