<svg width="24" height="24" viewBox="0 0 24 24" fill="none" xmlns="http://www.w3.org/2000/svg">
<path d="M12 2.4762C17.26 2.4762 21.5238 6.74001 21.5238 12C21.5238 17.26 17.26 21.5238 12 21.5238C6.74001 21.5238 2.4762 17.26 2.4762 12C2.4762 6.74001 6.74001 2.4762 12 2.4762ZM12 4.38096C9.97931 4.38096 8.04137 5.18368 6.61253 6.61253C5.18368 8.04137 4.38096 9.97931 4.38096 12C4.38096 14.0207 5.18368 15.9586 6.61253 17.3875C8.04137 18.8163 9.97931 19.6191 12 19.6191C14.0207 19.6191 15.9586 18.8163 17.3875 17.3875C18.8163 15.9586 19.6191 14.0207 19.6191 12C19.6191 9.97931 18.8163 8.04137 17.3875 6.61253C15.9586 5.18368 14.0207 4.38096 12 4.38096ZM12 6.28572C12.2333 6.28575 12.4584 6.37139 12.6327 6.5264C12.8071 6.68141 12.9184 6.895 12.9457 7.12667L12.9524 7.2381V11.6057L15.5305 14.1838C15.7013 14.3552 15.8005 14.5852 15.8078 14.827C15.8152 15.0689 15.7303 15.3045 15.5702 15.486C15.4102 15.6675 15.1871 15.7812 14.9462 15.8042C14.7053 15.8271 14.4648 15.7575 14.2733 15.6095L14.1838 15.5305L11.3267 12.6733C11.1787 12.5252 11.0836 12.3324 11.0562 12.1248L11.0476 12V7.2381C11.0476 6.98551 11.148 6.74327 11.3266 6.56467C11.5052 6.38606 11.7474 6.28572 12 6.28572Z" fill="#1E1E1E"/>
</svg>
